<svg width="495" height="495" viewBox="0 0 495 495" fill="none" xmlns="http://www.w3.org/2000/svg">
<path d="M5.416 416.096C5.00533 416.096 4.64533 416.024 4.336 415.88C4.02667 415.736 3.784 415.531 3.608 415.264C3.43733 414.997 3.34933 414.68 3.344 414.312H4.24C4.24533 414.611 4.34933 414.864 4.552 415.072C4.75467 415.28 5.04 415.384 5.408 415.384C5.73333 415.384 5.98667 415.307 6.168 415.152C6.35467 414.992 6.448 414.789 6.448 414.544C6.448 414.347 6.40267 414.187 6.312 414.064C6.22667 413.941 6.10667 413.84 5.952 413.76C5.80267 413.68 5.62933 413.608 5.432 413.544C5.23467 413.48 5.02667 413.411 4.808 413.336C4.376 413.192 4.05067 413.005 3.832 412.776C3.61867 412.547 3.512 412.245 3.512 411.872C3.50667 411.557 3.57867 411.283 3.728 411.048C3.88267 410.813 4.096 410.632 4.368 410.504C4.64533 410.371 4.968 410.304 5.336 410.304C5.69867 410.304 6.016 410.371 6.288 410.504C6.56533 410.637 6.78133 410.824 6.936 411.064C7.09067 411.299 7.17067 411.573 7.176 411.888H6.28C6.28 411.744 6.24267 411.608 6.168 411.48C6.09333 411.347 5.984 411.237 5.84 411.152C5.696 411.067 5.52 411.024 5.312 411.024C5.04533 411.019 4.824 411.085 4.648 411.224C4.47733 411.363 4.392 411.555 4.392 411.8C4.392 412.019 4.456 412.187 4.584 412.304C4.712 412.421 4.888 412.52 5.112 412.6C5.336 412.675 5.592 412.763 5.88 412.864C6.15733 412.955 6.40533 413.064 6.624 413.192C6.84267 413.32 7.016 413.488 7.144 413.696C7.27733 413.904 7.344 414.168 7.344 414.488C7.344 414.771 7.272 415.035 7.128 415.28C6.984 415.52 6.768 415.717 6.48 415.872C6.192 416.021 5.83733 416.096 5.416 416.096ZM9.50312 416C9.11379 416 8.80446 415.907 8.57512 415.72C8.34579 415.528 8.23112 415.189 8.23112 414.704V412.744H7.55112V412.032H8.23112L8.33512 411.024H9.07913V412.032H10.1991V412.744H9.07913V414.704C9.07913 414.923 9.12446 415.075 9.21512 415.16C9.31112 415.24 9.47379 415.28 9.70312 415.28H10.1591V416H9.50312ZM12.0175 416.096C11.6815 416.096 11.4042 416.04 11.1855 415.928C10.9668 415.816 10.8042 415.669 10.6975 415.488C10.5908 415.301 10.5375 415.099 10.5375 414.88C10.5375 414.496 10.6868 414.192 10.9855 413.968C11.2842 413.744 11.7108 413.632 12.2655 413.632H13.3055V413.56C13.3055 413.251 13.2202 413.019 13.0495 412.864C12.8842 412.709 12.6682 412.632 12.4015 412.632C12.1668 412.632 11.9615 412.691 11.7855 412.808C11.6148 412.92 11.5108 413.088 11.4735 413.312H10.6255C10.6522 413.024 10.7482 412.779 10.9135 412.576C11.0842 412.368 11.2975 412.211 11.5535 412.104C11.8148 411.992 12.1002 411.936 12.4095 411.936C12.9642 411.936 13.3935 412.083 13.6975 412.376C14.0015 412.664 14.1535 413.059 14.1535 413.56V416H13.4175L13.3455 415.32C13.2335 415.539 13.0708 415.723 12.8575 415.872C12.6442 416.021 12.3642 416.096 12.0175 416.096ZM12.1855 415.408C12.4148 415.408 12.6068 415.355 12.7615 415.248C12.9215 415.136 13.0442 414.989 13.1295 414.808C13.2202 414.627 13.2762 414.427 13.2975 414.208H12.3535C12.0175 414.208 11.7775 414.267 11.6335 414.384C11.4948 414.501 11.4255 414.648 11.4255 414.824C11.4255 415.005 11.4922 415.149 11.6255 415.256C11.7642 415.357 11.9508 415.408 12.1855 415.408ZM16.3281 416C15.9388 416 15.6295 415.907 15.4001 415.72C15.1708 415.528 15.0561 415.189 15.0561 414.704V412.744H14.3761V412.032H15.0561L15.1601 411.024H15.9041V412.032H17.0241V412.744H15.9041V414.704C15.9041 414.923 15.9495 415.075 16.0401 415.16C16.1361 415.24 16.2988 415.28 16.5281 415.28H16.9841V416H16.3281ZM17.9785 411.28C17.8185 411.28 17.6852 411.232 17.5785 411.136C17.4772 411.035 17.4265 410.909 17.4265 410.76C17.4265 410.611 17.4772 410.488 17.5785 410.392C17.6852 410.291 17.8185 410.24 17.9785 410.24C18.1385 410.24 18.2692 410.291 18.3705 410.392C18.4772 410.488 18.5305 410.611 18.5305 410.76C18.5305 410.909 18.4772 411.035 18.3705 411.136C18.2692 411.232 18.1385 411.28 17.9785 411.28ZM17.5545 416V412.032H18.4025V416H17.5545ZM21.0019 416.096C20.6126 416.096 20.2633 416.008 19.9539 415.832C19.6499 415.656 19.4099 415.413 19.2339 415.104C19.0633 414.789 18.9779 414.427 18.9779 414.016C18.9779 413.605 19.0633 413.245 19.2339 412.936C19.4099 412.621 19.6499 412.376 19.9539 412.2C20.2633 412.024 20.6126 411.936 21.0019 411.936C21.4926 411.936 21.9033 412.064 22.2339 412.32C22.5699 412.576 22.7859 412.923 22.8819 413.36H21.9939C21.9406 413.141 21.8233 412.971 21.6419 412.848C21.4606 412.725 21.2473 412.664 21.0019 412.664C20.7939 412.664 20.6019 412.717 20.4259 412.824C20.2499 412.925 20.1086 413.077 20.0019 413.28C19.8953 413.477 19.8419 413.723 19.8419 414.016C19.8419 414.309 19.8953 414.557 20.0019 414.76C20.1086 414.957 20.2499 415.109 20.4259 415.216C20.6019 415.323 20.7939 415.376 21.0019 415.376C21.2473 415.376 21.4606 415.315 21.6419 415.192C21.8233 415.069 21.9406 414.896 21.9939 414.672H22.8819C22.7913 415.099 22.5779 415.443 22.2419 415.704C21.9059 415.965 21.4926 416.096 21.0019 416.096Z" fill="#888888"/>
<path d="M4.02 433V422.5H10.875V424.045H5.94V426.925H10.425V428.425H5.94V431.455H10.875V433H4.02ZM11.1919 433L13.8919 429.28L11.1919 425.56H13.2469L15.1369 428.2L17.0119 425.56H19.0819L16.3669 429.28L19.0819 433H17.0119L15.1369 430.36L13.2469 433H11.1919ZM22.8046 433.18C22.0446 433.18 21.3746 433.015 20.7946 432.685C20.2146 432.355 19.7546 431.895 19.4146 431.305C19.0846 430.715 18.9196 430.04 18.9196 429.28C18.9196 428.52 19.0846 427.845 19.4146 427.255C19.7546 426.665 20.2146 426.205 20.7946 425.875C21.3746 425.545 22.0446 425.38 22.8046 425.38C23.7546 425.38 24.5546 425.63 25.2046 426.13C25.8546 426.62 26.2696 427.3 26.4496 428.17H24.4246C24.3246 427.81 24.1246 427.53 23.8246 427.33C23.5346 427.12 23.1896 427.015 22.7896 427.015C22.2596 427.015 21.8096 427.215 21.4396 427.615C21.0696 428.015 20.8846 428.57 20.8846 429.28C20.8846 429.99 21.0696 430.545 21.4396 430.945C21.8096 431.345 22.2596 431.545 22.7896 431.545C23.1896 431.545 23.5346 431.445 23.8246 431.245C24.1246 431.045 24.3246 430.76 24.4246 430.39H26.4496C26.2696 431.23 25.8546 431.905 25.2046 432.415C24.5546 432.925 23.7546 433.18 22.8046 433.18ZM31.0187 433.18C30.2687 433.18 29.6037 433.02 29.0237 432.7C28.4437 432.38 27.9887 431.93 27.6587 431.35C27.3287 430.77 27.1637 430.1 27.1637 429.34C27.1637 428.57 27.3237 427.885 27.6437 427.285C27.9737 426.685 28.4237 426.22 28.9937 425.89C29.5737 425.55 30.2537 425.38 31.0337 425.38C31.7637 425.38 32.4087 425.54 32.9687 425.86C33.5287 426.18 33.9637 426.62 34.2737 427.18C34.5937 427.73 34.7537 428.345 34.7537 429.025C34.7537 429.135 34.7487 429.25 34.7387 429.37C34.7387 429.49 34.7337 429.615 34.7237 429.745H29.0687C29.1087 430.325 29.3087 430.78 29.6687 431.11C30.0387 431.44 30.4837 431.605 31.0037 431.605C31.3937 431.605 31.7187 431.52 31.9787 431.35C32.2487 431.17 32.4487 430.94 32.5787 430.66H34.5287C34.3887 431.13 34.1537 431.56 33.8237 431.95C33.5037 432.33 33.1037 432.63 32.6237 432.85C32.1537 433.07 31.6187 433.18 31.0187 433.18ZM31.0337 426.94C30.5637 426.94 30.1487 427.075 29.7887 427.345C29.4287 427.605 29.1987 428.005 29.0987 428.545H32.8037C32.7737 428.055 32.5937 427.665 32.2637 427.375C31.9337 427.085 31.5237 426.94 31.0337 426.94ZM35.6186 433V422.2H37.5386V433H35.6186ZM4.02 453V442.5H10.8V444.045H5.94V446.985H9.87V448.5H5.94V453H4.02ZM12.5217 444.405C12.1717 444.405 11.8817 444.3 11.6517 444.09C11.4317 443.88 11.3217 443.615 11.3217 443.295C11.3217 442.975 11.4317 442.715 11.6517 442.515C11.8817 442.305 12.1717 442.2 12.5217 442.2C12.8717 442.2 13.1567 442.305 13.3767 442.515C13.6067 442.715 13.7217 442.975 13.7217 443.295C13.7217 443.615 13.6067 443.88 13.3767 444.09C13.1567 444.3 12.8717 444.405 12.5217 444.405ZM11.5617 453V445.56H13.4817V453H11.5617ZM14.7357 453V442.2H16.6557V453H14.7357ZM21.4826 453.18C20.7326 453.18 20.0676 453.02 19.4876 452.7C18.9076 452.38 18.4526 451.93 18.1226 451.35C17.7926 450.77 17.6276 450.1 17.6276 449.34C17.6276 448.57 17.7876 447.885 18.1076 447.285C18.4376 446.685 18.8876 446.22 19.4576 445.89C20.0376 445.55 20.7176 445.38 21.4976 445.38C22.2276 445.38 22.8726 445.54 23.4326 445.86C23.9926 446.18 24.4276 446.62 24.7376 447.18C25.0576 447.73 25.2176 448.345 25.2176 449.025C25.2176 449.135 25.2126 449.25 25.2026 449.37C25.2026 449.49 25.1976 449.615 25.1876 449.745H19.5326C19.5726 450.325 19.7726 450.78 20.1326 451.11C20.5026 451.44 20.9476 451.605 21.4676 451.605C21.8576 451.605 22.1826 451.52 22.4426 451.35C22.7126 451.17 22.9126 450.94 23.0426 450.66H24.9926C24.8526 451.13 24.6176 451.56 24.2876 451.95C23.9676 452.33 23.5676 452.63 23.0876 452.85C22.6176 453.07 22.0826 453.18 21.4826 453.18ZM21.4976 446.94C21.0276 446.94 20.6126 447.075 20.2526 447.345C19.8926 447.605 19.6626 448.005 19.5626 448.545H23.2676C23.2376 448.055 23.0576 447.665 22.7276 447.375C22.3976 447.085 21.9876 446.94 21.4976 446.94Z" fill="black"/>
<path d="M196.568 416V410.4H198.384C199.04 410.4 199.579 410.515 200 410.744C200.427 410.973 200.741 411.299 200.944 411.72C201.152 412.136 201.256 412.632 201.256 413.208C201.256 413.779 201.152 414.275 200.944 414.696C200.741 415.112 200.427 415.435 200 415.664C199.579 415.888 199.04 416 198.384 416H196.568ZM197.416 415.28H198.352C198.859 415.28 199.259 415.197 199.552 415.032C199.851 414.867 200.064 414.629 200.192 414.32C200.325 414.011 200.392 413.64 200.392 413.208C200.392 412.776 200.325 412.403 200.192 412.088C200.064 411.773 199.851 411.533 199.552 411.368C199.259 411.197 198.859 411.112 198.352 411.112H197.416V415.28ZM202.225 417.76L203.177 415.672H202.945L201.377 412.032H202.297L203.513 414.968L204.785 412.032H205.681L203.121 417.76H202.225ZM205.978 416V412.032H206.73L206.794 412.728C206.917 412.483 207.096 412.291 207.33 412.152C207.57 412.008 207.845 411.936 208.154 411.936C208.634 411.936 209.01 412.085 209.282 412.384C209.56 412.683 209.698 413.128 209.698 413.72V416H208.858V413.808C208.858 413.04 208.544 412.656 207.914 412.656C207.6 412.656 207.338 412.768 207.13 412.992C206.928 413.216 206.826 413.536 206.826 413.952V416H205.978ZM211.641 416.096C211.305 416.096 211.028 416.04 210.809 415.928C210.59 415.816 210.428 415.669 210.321 415.488C210.214 415.301 210.161 415.099 210.161 414.88C210.161 414.496 210.31 414.192 210.609 413.968C210.908 413.744 211.334 413.632 211.889 413.632H212.929V413.56C212.929 413.251 212.844 413.019 212.673 412.864C212.508 412.709 212.292 412.632 212.025 412.632C211.79 412.632 211.585 412.691 211.409 412.808C211.238 412.92 211.134 413.088 211.097 413.312H210.249C210.276 413.024 210.372 412.779 210.537 412.576C210.708 412.368 210.921 412.211 211.177 412.104C211.438 411.992 211.724 411.936 212.033 411.936C212.588 411.936 213.017 412.083 213.321 412.376C213.625 412.664 213.777 413.059 213.777 413.56V416H213.041L212.969 415.32C212.857 415.539 212.694 415.723 212.481 415.872C212.268 416.021 211.988 416.096 211.641 416.096ZM211.809 415.408C212.038 415.408 212.23 415.355 212.385 415.248C212.545 415.136 212.668 414.989 212.753 414.808C212.844 414.627 212.9 414.427 212.921 414.208H211.977C211.641 414.208 211.401 414.267 211.257 414.384C211.118 414.501 211.049 414.648 211.049 414.824C211.049 415.005 211.116 415.149 211.249 415.256C211.388 415.357 211.574 415.408 211.809 415.408ZM214.366 416V412.032H215.118L215.19 412.592C215.318 412.389 215.486 412.229 215.694 412.112C215.907 411.995 216.152 411.936 216.43 411.936C217.059 411.936 217.496 412.184 217.742 412.68C217.886 412.451 218.078 412.269 218.318 412.136C218.563 412.003 218.827 411.936 219.11 411.936C219.606 411.936 219.995 412.085 220.278 412.384C220.56 412.683 220.702 413.128 220.702 413.72V416H219.854V413.808C219.854 413.04 219.56 412.656 218.974 412.656C218.675 412.656 218.43 412.768 218.238 412.992C218.051 413.216 217.958 413.536 217.958 413.952V416H217.11V413.808C217.11 413.04 216.814 412.656 216.222 412.656C215.928 412.656 215.686 412.768 215.494 412.992C215.307 413.216 215.214 413.536 215.214 413.952V416H214.366ZM221.774 411.28C221.614 411.28 221.48 411.232 221.374 411.136C221.272 411.035 221.222 410.909 221.222 410.76C221.222 410.611 221.272 410.488 221.374 410.392C221.48 410.291 221.614 410.24 221.774 410.24C221.934 410.24 222.064 410.291 222.166 410.392C222.272 410.488 222.326 410.611 222.326 410.76C222.326 410.909 222.272 411.035 222.166 411.136C222.064 411.232 221.934 411.28 221.774 411.28ZM221.35 416V412.032H222.198V416H221.35ZM224.797 416.096C224.408 416.096 224.059 416.008 223.749 415.832C223.445 415.656 223.205 415.413 223.029 415.104C222.859 414.789 222.773 414.427 222.773 414.016C222.773 413.605 222.859 413.245 223.029 412.936C223.205 412.621 223.445 412.376 223.749 412.2C224.059 412.024 224.408 411.936 224.797 411.936C225.288 411.936 225.699 412.064 226.029 412.32C226.365 412.576 226.581 412.923 226.677 413.36H225.789C225.736 413.141 225.619 412.971 225.437 412.848C225.256 412.725 225.043 412.664 224.797 412.664C224.589 412.664 224.397 412.717 224.221 412.824C224.045 412.925 223.904 413.077 223.797 413.28C223.691 413.477 223.637 413.723 223.637 414.016C223.637 414.309 223.691 414.557 223.797 414.76C223.904 414.957 224.045 415.109 224.221 415.216C224.397 415.323 224.589 415.376 224.797 415.376C225.043 415.376 225.256 415.315 225.437 415.192C225.619 415.069 225.736 414.896 225.789 414.672H226.677C226.587 415.099 226.373 415.443 226.037 415.704C225.701 415.965 225.288 416.096 224.797 416.096Z" fill="#888888"/>
<path d="M201.775 433.18C200.715 433.18 199.805 432.955 199.045 432.505C198.285 432.045 197.7 431.41 197.29 430.6C196.88 429.78 196.675 428.835 196.675 427.765C196.675 426.695 196.88 425.75 197.29 424.93C197.7 424.11 198.285 423.47 199.045 423.01C199.805 422.55 200.715 422.32 201.775 422.32C203.035 422.32 204.065 422.635 204.865 423.265C205.675 423.885 206.18 424.76 206.38 425.89H204.265C204.135 425.32 203.855 424.875 203.425 424.555C203.005 424.225 202.445 424.06 201.745 424.06C200.775 424.06 200.015 424.39 199.465 425.05C198.915 425.71 198.64 426.615 198.64 427.765C198.64 428.915 198.915 429.82 199.465 430.48C200.015 431.13 200.775 431.455 201.745 431.455C202.445 431.455 203.005 431.305 203.425 431.005C203.855 430.695 204.135 430.27 204.265 429.73H206.38C206.18 430.81 205.675 431.655 204.865 432.265C204.065 432.875 203.035 433.18 201.775 433.18ZM207.285 433V422.2H209.205V433H207.285ZM213.986 433.18C213.266 433.18 212.616 433.015 212.036 432.685C211.466 432.355 211.011 431.9 210.671 431.32C210.341 430.73 210.176 430.05 210.176 429.28C210.176 428.51 210.346 427.835 210.686 427.255C211.026 426.665 211.481 426.205 212.051 425.875C212.631 425.545 213.281 425.38 214.001 425.38C214.711 425.38 215.351 425.545 215.921 425.875C216.501 426.205 216.956 426.665 217.286 427.255C217.626 427.835 217.796 428.51 217.796 429.28C217.796 430.05 217.626 430.73 217.286 431.32C216.956 431.9 216.501 432.355 215.921 432.685C215.341 433.015 214.696 433.18 213.986 433.18ZM213.986 431.515C214.486 431.515 214.921 431.33 215.291 430.96C215.661 430.58 215.846 430.02 215.846 429.28C215.846 428.54 215.661 427.985 215.291 427.615C214.921 427.235 214.491 427.045 214.001 427.045C213.491 427.045 213.051 427.235 212.681 427.615C212.321 427.985 212.141 428.54 212.141 429.28C212.141 430.02 212.321 430.58 212.681 430.96C213.051 431.33 213.486 431.515 213.986 431.515ZM221.553 433.18C220.623 433.18 219.903 432.89 219.393 432.31C218.893 431.73 218.643 430.88 218.643 429.76V425.56H220.548V429.58C220.548 430.22 220.678 430.71 220.938 431.05C221.198 431.39 221.608 431.56 222.168 431.56C222.698 431.56 223.133 431.37 223.473 430.99C223.823 430.61 223.998 430.08 223.998 429.4V425.56H225.918V433H224.223L224.073 431.74C223.843 432.18 223.508 432.53 223.068 432.79C222.638 433.05 222.133 433.18 221.553 433.18ZM230.559 433.18C229.859 433.18 229.234 433.01 228.684 432.67C228.134 432.33 227.699 431.865 227.379 431.275C227.059 430.685 226.899 430.015 226.899 429.265C226.899 428.515 227.059 427.85 227.379 427.27C227.699 426.68 228.134 426.22 228.684 425.89C229.234 425.55 229.859 425.38 230.559 425.38C231.119 425.38 231.609 425.485 232.029 425.695C232.449 425.905 232.789 426.2 233.049 426.58V422.2H234.969V433H233.259L233.049 431.935C232.809 432.265 232.489 432.555 232.089 432.805C231.699 433.055 231.189 433.18 230.559 433.18ZM230.964 431.5C231.584 431.5 232.089 431.295 232.479 430.885C232.879 430.465 233.079 429.93 233.079 429.28C233.079 428.63 232.879 428.1 232.479 427.69C232.089 427.27 231.584 427.06 230.964 427.06C230.354 427.06 229.849 427.265 229.449 427.675C229.049 428.085 228.849 428.615 228.849 429.265C228.849 429.915 229.049 430.45 229.449 430.87C229.849 431.29 230.354 431.5 230.964 431.5ZM200.065 453L196.225 442.5H198.28L201.25 451.035L204.235 442.5H206.26L202.42 453H200.065ZM209.435 453.18C208.685 453.18 208.02 453.02 207.44 452.7C206.86 452.38 206.405 451.93 206.075 451.35C205.745 450.77 205.58 450.1 205.58 449.34C205.58 448.57 205.74 447.885 206.06 447.285C206.39 446.685 206.84 446.22 207.41 445.89C207.99 445.55 208.67 445.38 209.45 445.38C210.18 445.38 210.825 445.54 211.385 445.86C211.945 446.18 212.38 446.62 212.69 447.18C213.01 447.73 213.17 448.345 213.17 449.025C213.17 449.135 213.165 449.25 213.155 449.37C213.155 449.49 213.15 449.615 213.14 449.745H207.485C207.525 450.325 207.725 450.78 208.085 451.11C208.455 451.44 208.9 451.605 209.42 451.605C209.81 451.605 210.135 451.52 210.395 451.35C210.665 451.17 210.865 450.94 210.995 450.66H212.945C212.805 451.13 212.57 451.56 212.24 451.95C211.92 452.33 211.52 452.63 211.04 452.85C210.57 453.07 210.035 453.18 209.435 453.18ZM209.45 446.94C208.98 446.94 208.565 447.075 208.205 447.345C207.845 447.605 207.615 448.005 207.515 448.545H211.22C211.19 448.055 211.01 447.665 210.68 447.375C210.35 447.085 209.94 446.94 209.45 446.94ZM214.035 453V445.56H215.745L215.925 446.955C216.195 446.475 216.56 446.095 217.02 445.815C217.49 445.525 218.04 445.38 218.67 445.38V447.405H218.13C217.71 447.405 217.335 447.47 217.005 447.6C216.675 447.73 216.415 447.955 216.225 448.275C216.045 448.595 215.955 449.04 215.955 449.61V453H214.035ZM222.307 453.18C221.647 453.18 221.067 453.075 220.567 452.865C220.067 452.645 219.667 452.345 219.367 451.965C219.067 451.585 218.887 451.145 218.827 450.645H220.762C220.822 450.935 220.982 451.185 221.242 451.395C221.512 451.595 221.857 451.695 222.277 451.695C222.697 451.695 223.002 451.61 223.192 451.44C223.392 451.27 223.492 451.075 223.492 450.855C223.492 450.535 223.352 450.32 223.072 450.21C222.792 450.09 222.402 449.975 221.902 449.865C221.582 449.795 221.257 449.71 220.927 449.61C220.597 449.51 220.292 449.385 220.012 449.235C219.742 449.075 219.522 448.875 219.352 448.635C219.182 448.385 219.097 448.08 219.097 447.72C219.097 447.06 219.357 446.505 219.877 446.055C220.407 445.605 221.147 445.38 222.097 445.38C222.977 445.38 223.677 445.585 224.197 445.995C224.727 446.405 225.042 446.97 225.142 447.69H223.327C223.217 447.14 222.802 446.865 222.082 446.865C221.722 446.865 221.442 446.935 221.242 447.075C221.052 447.215 220.957 447.39 220.957 447.6C220.957 447.82 221.102 447.995 221.392 448.125C221.682 448.255 222.067 448.375 222.547 448.485C223.067 448.605 223.542 448.74 223.972 448.89C224.412 449.03 224.762 449.245 225.022 449.535C225.282 449.815 225.412 450.22 225.412 450.75C225.422 451.21 225.302 451.625 225.052 451.995C224.802 452.365 224.442 452.655 223.972 452.865C223.502 453.075 222.947 453.18 222.307 453.18ZM227.398 444.405C227.048 444.405 226.758 444.3 226.528 444.09C226.308 443.88 226.198 443.615 226.198 443.295C226.198 442.975 226.308 442.715 226.528 442.515C226.758 442.305 227.048 442.2 227.398 442.2C227.748 442.2 228.033 442.305 228.253 442.515C228.483 442.715 228.598 442.975 228.598 443.295C228.598 443.615 228.483 443.88 228.253 444.09C228.033 444.3 227.748 444.405 227.398 444.405ZM226.438 453V445.56H228.358V453H226.438ZM233.182 453.18C232.462 453.18 231.812 453.015 231.232 452.685C230.662 452.355 230.207 451.9 229.867 451.32C229.537 450.73 229.372 450.05 229.372 449.28C229.372 448.51 229.542 447.835 229.882 447.255C230.222 446.665 230.677 446.205 231.247 445.875C231.827 445.545 232.477 445.38 233.197 445.38C233.907 445.38 234.547 445.545 235.117 445.875C235.697 446.205 236.152 446.665 236.482 447.255C236.822 447.835 236.992 448.51 236.992 449.28C236.992 450.05 236.822 450.73 236.482 451.32C236.152 451.9 235.697 452.355 235.117 452.685C234.537 453.015 233.892 453.18 233.182 453.18ZM233.182 451.515C233.682 451.515 234.117 451.33 234.487 450.96C234.857 450.58 235.042 450.02 235.042 449.28C235.042 448.54 234.857 447.985 234.487 447.615C234.117 447.235 233.687 447.045 233.197 447.045C232.687 447.045 232.247 447.235 231.877 447.615C231.517 447.985 231.337 448.54 231.337 449.28C231.337 450.02 231.517 450.58 231.877 450.96C232.247 451.33 232.682 451.515 233.182 451.515ZM237.958 453V445.56H239.653L239.803 446.82C240.033 446.38 240.363 446.03 240.793 445.77C241.233 445.51 241.748 445.38 242.338 445.38C243.258 445.38 243.973 445.67 244.483 446.25C244.993 446.83 245.248 447.68 245.248 448.8V453H243.328V448.98C243.328 448.34 243.198 447.85 242.938 447.51C242.678 447.17 242.273 447 241.723 447C241.183 447 240.738 447.19 240.388 447.57C240.048 447.95 239.878 448.48 239.878 449.16V453H237.958ZM247.369 444.405C247.019 444.405 246.729 444.3 246.499 444.09C246.279 443.88 246.169 443.615 246.169 443.295C246.169 442.975 246.279 442.715 246.499 442.515C246.729 442.305 247.019 442.2 247.369 442.2C247.719 442.2 248.004 442.305 248.224 442.515C248.454 442.715 248.569 442.975 248.569 443.295C248.569 443.615 248.454 443.88 248.224 444.09C248.004 444.3 247.719 444.405 247.369 444.405ZM246.409 453V445.56H248.329V453H246.409ZM249.583 453V445.56H251.278L251.428 446.82C251.658 446.38 251.988 446.03 252.418 445.77C252.858 445.51 253.373 445.38 253.963 445.38C254.883 445.38 255.598 445.67 256.108 446.25C256.618 446.83 256.873 447.68 256.873 448.8V453H254.953V448.98C254.953 448.34 254.823 447.85 254.563 447.51C254.303 447.17 253.898 447 253.348 447C252.808 447 252.363 447.19 252.013 447.57C251.673 447.95 251.503 448.48 251.503 449.16V453H249.583ZM261.109 450.78C260.749 450.78 260.414 450.74 260.104 450.66L259.549 451.215C259.719 451.305 259.949 451.38 260.239 451.44C260.529 451.5 260.999 451.56 261.649 451.62C262.639 451.71 263.359 451.945 263.809 452.325C264.259 452.705 264.484 453.23 264.484 453.9C264.484 454.34 264.364 454.755 264.124 455.145C263.884 455.545 263.514 455.865 263.014 456.105C262.514 456.355 261.874 456.48 261.094 456.48C260.034 456.48 259.179 456.28 258.529 455.88C257.879 455.49 257.554 454.9 257.554 454.11C257.554 453.44 257.879 452.86 258.529 452.37C258.329 452.28 258.154 452.185 258.004 452.085C257.864 451.985 257.739 451.88 257.629 451.77V451.425L258.934 450.045C258.354 449.535 258.064 448.88 258.064 448.08C258.064 447.58 258.184 447.125 258.424 446.715C258.674 446.305 259.024 445.98 259.474 445.74C259.924 445.5 260.469 445.38 261.109 445.38C261.529 445.38 261.919 445.44 262.279 445.56H265.099V446.73L263.824 446.82C264.024 447.2 264.124 447.62 264.124 448.08C264.124 448.58 264.004 449.035 263.764 449.445C263.524 449.855 263.174 450.18 262.714 450.42C262.264 450.66 261.729 450.78 261.109 450.78ZM261.109 449.31C261.499 449.31 261.819 449.205 262.069 448.995C262.329 448.785 262.459 448.485 262.459 448.095C262.459 447.705 262.329 447.405 262.069 447.195C261.819 446.985 261.499 446.88 261.109 446.88C260.699 446.88 260.369 446.985 260.119 447.195C259.869 447.405 259.744 447.705 259.744 448.095C259.744 448.485 259.869 448.785 260.119 448.995C260.369 449.205 260.699 449.31 261.109 449.31ZM259.309 453.915C259.309 454.285 259.479 454.56 259.819 454.74C260.169 454.93 260.594 455.025 261.094 455.025C261.574 455.025 261.964 454.925 262.264 454.725C262.564 454.535 262.714 454.275 262.714 453.945C262.714 453.675 262.614 453.45 262.414 453.27C262.224 453.09 261.839 452.98 261.259 452.94C260.849 452.91 260.469 452.865 260.119 452.805C259.829 452.965 259.619 453.14 259.489 453.33C259.369 453.52 259.309 453.715 259.309 453.915Z" fill="black"/>
<path d="M406.568 416V410.4H410.08V411.088H407.416V412.856H409.624V413.536H407.416V416H406.568ZM411.944 416.096C411.464 416.096 411.085 415.947 410.808 415.648C410.536 415.349 410.4 414.904 410.4 414.312V412.032H411.248V414.224C411.248 414.992 411.562 415.376 412.192 415.376C412.506 415.376 412.765 415.264 412.968 415.04C413.17 414.816 413.272 414.496 413.272 414.08V412.032H414.12V416H413.368L413.304 415.304C413.181 415.549 413 415.744 412.76 415.888C412.525 416.027 412.253 416.096 411.944 416.096ZM414.798 416V410.24H415.646V416H414.798ZM416.32 416V410.24H417.168V416H416.32ZM421.146 416L419.074 410.4H419.978L421.658 415.12L423.346 410.4H424.242L422.17 416H421.146ZM425.007 411.28C424.847 411.28 424.713 411.232 424.607 411.136C424.505 411.035 424.455 410.909 424.455 410.76C424.455 410.611 424.505 410.488 424.607 410.392C424.713 410.291 424.847 410.24 425.007 410.24C425.167 410.24 425.297 410.291 425.399 410.392C425.505 410.488 425.559 410.611 425.559 410.76C425.559 410.909 425.505 411.035 425.399 411.136C425.297 411.232 425.167 411.28 425.007 411.28ZM424.583 416V412.032H425.431V416H424.583ZM427.734 416.096C427.233 416.096 426.819 415.973 426.494 415.728C426.169 415.483 425.982 415.157 425.934 414.752H426.79C426.833 414.933 426.934 415.091 427.094 415.224C427.254 415.352 427.465 415.416 427.726 415.416C427.982 415.416 428.169 415.363 428.286 415.256C428.403 415.149 428.462 415.027 428.462 414.888C428.462 414.685 428.379 414.549 428.214 414.48C428.054 414.405 427.83 414.339 427.542 414.28C427.318 414.232 427.094 414.168 426.87 414.088C426.651 414.008 426.467 413.896 426.318 413.752C426.174 413.603 426.102 413.403 426.102 413.152C426.102 412.805 426.235 412.517 426.502 412.288C426.769 412.053 427.142 411.936 427.622 411.936C428.065 411.936 428.422 412.043 428.694 412.256C428.971 412.469 429.134 412.771 429.182 413.16H428.366C428.339 412.989 428.259 412.856 428.126 412.76C427.998 412.664 427.825 412.616 427.606 412.616C427.393 412.616 427.227 412.661 427.11 412.752C426.993 412.837 426.934 412.949 426.934 413.088C426.934 413.227 427.014 413.336 427.174 413.416C427.339 413.496 427.555 413.568 427.822 413.632C428.089 413.691 428.334 413.76 428.558 413.84C428.787 413.915 428.971 414.027 429.11 414.176C429.249 414.325 429.318 414.544 429.318 414.832C429.323 415.195 429.182 415.496 428.894 415.736C428.611 415.976 428.225 416.096 427.734 416.096ZM430.324 411.28C430.164 411.28 430.03 411.232 429.924 411.136C429.822 411.035 429.772 410.909 429.772 410.76C429.772 410.611 429.822 410.488 429.924 410.392C430.03 410.291 430.164 410.24 430.324 410.24C430.484 410.24 430.614 410.291 430.716 410.392C430.822 410.488 430.876 410.611 430.876 410.76C430.876 410.909 430.822 411.035 430.716 411.136C430.614 411.232 430.484 411.28 430.324 411.28ZM429.9 416V412.032H430.748V416H429.9ZM433.699 416.096C433.39 416.096 433.115 416.035 432.875 415.912C432.641 415.789 432.454 415.616 432.315 415.392L432.227 416H431.467V410.24H432.315V412.648C432.443 412.461 432.619 412.296 432.843 412.152C433.067 412.008 433.355 411.936 433.707 411.936C434.091 411.936 434.43 412.027 434.723 412.208C435.017 412.389 435.246 412.637 435.411 412.952C435.582 413.267 435.667 413.624 435.667 414.024C435.667 414.424 435.582 414.781 435.411 415.096C435.246 415.405 435.017 415.651 434.723 415.832C434.43 416.008 434.089 416.096 433.699 416.096ZM433.555 415.36C433.918 415.36 434.217 415.237 434.451 414.992C434.686 414.741 434.803 414.416 434.803 414.016C434.803 413.755 434.75 413.523 434.643 413.32C434.537 413.117 434.39 412.96 434.203 412.848C434.017 412.731 433.801 412.672 433.555 412.672C433.193 412.672 432.894 412.797 432.659 413.048C432.43 413.299 432.315 413.621 432.315 414.016C432.315 414.416 432.43 414.741 432.659 414.992C432.894 415.237 433.193 415.36 433.555 415.36ZM436.664 411.28C436.504 411.28 436.371 411.232 436.264 411.136C436.163 411.035 436.112 410.909 436.112 410.76C436.112 410.611 436.163 410.488 436.264 410.392C436.371 410.291 436.504 410.24 436.664 410.24C436.824 410.24 436.955 410.291 437.056 410.392C437.163 410.488 437.216 410.611 437.216 410.76C437.216 410.909 437.163 411.035 437.056 411.136C436.955 411.232 436.824 411.28 436.664 411.28ZM436.24 416V412.032H437.088V416H436.24ZM437.808 416V410.24H438.656V416H437.808ZM439.81 411.28C439.65 411.28 439.516 411.232 439.41 411.136C439.308 411.035 439.258 410.909 439.258 410.76C439.258 410.611 439.308 410.488 439.41 410.392C439.516 410.291 439.65 410.24 439.81 410.24C439.97 410.24 440.1 410.291 440.202 410.392C440.308 410.488 440.362 410.611 440.362 410.76C440.362 410.909 440.308 411.035 440.202 411.136C440.1 411.232 439.97 411.28 439.81 411.28ZM439.386 416V412.032H440.234V416H439.386ZM442.617 416C442.228 416 441.919 415.907 441.689 415.72C441.46 415.528 441.345 415.189 441.345 414.704V412.744H440.665V412.032H441.345L441.449 411.024H442.193V412.032H443.313V412.744H442.193V414.704C442.193 414.923 442.239 415.075 442.329 415.16C442.425 415.24 442.588 415.28 442.817 415.28H443.273V416H442.617ZM444.252 417.76L445.204 415.672H444.972L443.404 412.032H444.324L445.54 414.968L446.812 412.032H447.708L445.148 417.76H444.252Z" fill="#888888"/>
<path d="M407.02 433V422.5H413.8V424.045H408.94V426.985H412.87V428.5H408.94V433H407.02ZM417.277 433.18C416.347 433.18 415.627 432.89 415.117 432.31C414.617 431.73 414.367 430.88 414.367 429.76V425.56H416.272V429.58C416.272 430.22 416.402 430.71 416.662 431.05C416.922 431.39 417.332 431.56 417.892 431.56C418.422 431.56 418.857 431.37 419.197 430.99C419.547 430.61 419.722 430.08 419.722 429.4V425.56H421.642V433H419.947L419.797 431.74C419.567 432.18 419.232 432.53 418.792 432.79C418.362 433.05 417.857 433.18 417.277 433.18ZM422.863 433V422.2H424.783V433H422.863ZM425.995 433V422.2H427.915V433H425.995ZM436.751 433.18C435.691 433.18 434.781 432.955 434.021 432.505C433.261 432.045 432.676 431.41 432.266 430.6C431.856 429.78 431.651 428.835 431.651 427.765C431.651 426.695 431.856 425.75 432.266 424.93C432.676 424.11 433.261 423.47 434.021 423.01C434.781 422.55 435.691 422.32 436.751 422.32C438.011 422.32 439.041 422.635 439.841 423.265C440.651 423.885 441.156 424.76 441.356 425.89H439.241C439.111 425.32 438.831 424.875 438.401 424.555C437.981 424.225 437.421 424.06 436.721 424.06C435.751 424.06 434.991 424.39 434.441 425.05C433.891 425.71 433.616 426.615 433.616 427.765C433.616 428.915 433.891 429.82 434.441 430.48C434.991 431.13 435.751 431.455 436.721 431.455C437.421 431.455 437.981 431.305 438.401 431.005C438.831 430.695 439.111 430.27 439.241 429.73H441.356C441.156 430.81 440.651 431.655 439.841 432.265C439.041 432.875 438.011 433.18 436.751 433.18ZM445.83 433.18C445.11 433.18 444.46 433.015 443.88 432.685C443.31 432.355 442.855 431.9 442.515 431.32C442.185 430.73 442.02 430.05 442.02 429.28C442.02 428.51 442.19 427.835 442.53 427.255C442.87 426.665 443.325 426.205 443.895 425.875C444.475 425.545 445.125 425.38 445.845 425.38C446.555 425.38 447.195 425.545 447.765 425.875C448.345 426.205 448.8 426.665 449.13 427.255C449.47 427.835 449.64 428.51 449.64 429.28C449.64 430.05 449.47 430.73 449.13 431.32C448.8 431.9 448.345 432.355 447.765 432.685C447.185 433.015 446.54 433.18 445.83 433.18ZM445.83 431.515C446.33 431.515 446.765 431.33 447.135 430.96C447.505 430.58 447.69 430.02 447.69 429.28C447.69 428.54 447.505 427.985 447.135 427.615C446.765 427.235 446.335 427.045 445.845 427.045C445.335 427.045 444.895 427.235 444.525 427.615C444.165 427.985 443.985 428.54 443.985 429.28C443.985 430.02 444.165 430.58 444.525 430.96C444.895 431.33 445.33 431.515 445.83 431.515ZM452.251 433L449.521 425.56H451.531L453.421 431.185L455.311 425.56H457.321L454.576 433H452.251ZM461.03 433.18C460.28 433.18 459.615 433.02 459.035 432.7C458.455 432.38 458 431.93 457.67 431.35C457.34 430.77 457.175 430.1 457.175 429.34C457.175 428.57 457.335 427.885 457.655 427.285C457.985 426.685 458.435 426.22 459.005 425.89C459.585 425.55 460.265 425.38 461.045 425.38C461.775 425.38 462.42 425.54 462.98 425.86C463.54 426.18 463.975 426.62 464.285 427.18C464.605 427.73 464.765 428.345 464.765 429.025C464.765 429.135 464.76 429.25 464.75 429.37C464.75 429.49 464.745 429.615 464.735 429.745H459.08C459.12 430.325 459.32 430.78 459.68 431.11C460.05 431.44 460.495 431.605 461.015 431.605C461.405 431.605 461.73 431.52 461.99 431.35C462.26 431.17 462.46 430.94 462.59 430.66H464.54C464.4 431.13 464.165 431.56 463.835 431.95C463.515 432.33 463.115 432.63 462.635 432.85C462.165 433.07 461.63 433.18 461.03 433.18ZM461.045 426.94C460.575 426.94 460.16 427.075 459.8 427.345C459.44 427.605 459.21 428.005 459.11 428.545H462.815C462.785 428.055 462.605 427.665 462.275 427.375C461.945 427.085 461.535 426.94 461.045 426.94ZM465.63 433V425.56H467.34L467.52 426.955C467.79 426.475 468.155 426.095 468.615 425.815C469.085 425.525 469.635 425.38 470.265 425.38V427.405H469.725C469.305 427.405 468.93 427.47 468.6 427.6C468.27 427.73 468.01 427.955 467.82 428.275C467.64 428.595 467.55 429.04 467.55 429.61V433H465.63ZM473.393 433.18C472.753 433.18 472.228 433.08 471.818 432.88C471.408 432.67 471.103 432.395 470.903 432.055C470.703 431.715 470.603 431.34 470.603 430.93C470.603 430.24 470.873 429.68 471.413 429.25C471.953 428.82 472.763 428.605 473.843 428.605H475.733V428.425C475.733 427.915 475.588 427.54 475.298 427.3C475.008 427.06 474.648 426.94 474.218 426.94C473.828 426.94 473.488 427.035 473.198 427.225C472.908 427.405 472.728 427.675 472.658 428.035H470.783C470.833 427.495 471.013 427.025 471.323 426.625C471.643 426.225 472.053 425.92 472.553 425.71C473.053 425.49 473.613 425.38 474.233 425.38C475.293 425.38 476.128 425.645 476.738 426.175C477.348 426.705 477.653 427.455 477.653 428.425V433H476.018L475.838 431.8C475.618 432.2 475.308 432.53 474.908 432.79C474.518 433.05 474.013 433.18 473.393 433.18ZM473.828 431.68C474.378 431.68 474.803 431.5 475.103 431.14C475.413 430.78 475.608 430.335 475.688 429.805H474.053C473.543 429.805 473.178 429.9 472.958 430.09C472.738 430.27 472.628 430.495 472.628 430.765C472.628 431.055 472.738 431.28 472.958 431.44C473.178 431.6 473.468 431.68 473.828 431.68ZM481.885 430.78C481.525 430.78 481.19 430.74 480.88 430.66L480.325 431.215C480.495 431.305 480.725 431.38 481.015 431.44C481.305 431.5 481.775 431.56 482.425 431.62C483.415 431.71 484.135 431.945 484.585 432.325C485.035 432.705 485.26 433.23 485.26 433.9C485.26 434.34 485.14 434.755 484.9 435.145C484.66 435.545 484.29 435.865 483.79 436.105C483.29 436.355 482.65 436.48 481.87 436.48C480.81 436.48 479.955 436.28 479.305 435.88C478.655 435.49 478.33 434.9 478.33 434.11C478.33 433.44 478.655 432.86 479.305 432.37C479.105 432.28 478.93 432.185 478.78 432.085C478.64 431.985 478.515 431.88 478.405 431.77V431.425L479.71 430.045C479.13 429.535 478.84 428.88 478.84 428.08C478.84 427.58 478.96 427.125 479.2 426.715C479.45 426.305 479.8 425.98 480.25 425.74C480.7 425.5 481.245 425.38 481.885 425.38C482.305 425.38 482.695 425.44 483.055 425.56H485.875V426.73L484.6 426.82C484.8 427.2 484.9 427.62 484.9 428.08C484.9 428.58 484.78 429.035 484.54 429.445C484.3 429.855 483.95 430.18 483.49 430.42C483.04 430.66 482.505 430.78 481.885 430.78ZM481.885 429.31C482.275 429.31 482.595 429.205 482.845 428.995C483.105 428.785 483.235 428.485 483.235 428.095C483.235 427.705 483.105 427.405 482.845 427.195C482.595 426.985 482.275 426.88 481.885 426.88C481.475 426.88 481.145 426.985 480.895 427.195C480.645 427.405 480.52 427.705 480.52 428.095C480.52 428.485 480.645 428.785 480.895 428.995C481.145 429.205 481.475 429.31 481.885 429.31ZM480.085 433.915C480.085 434.285 480.255 434.56 480.595 434.74C480.945 434.93 481.37 435.025 481.87 435.025C482.35 435.025 482.74 434.925 483.04 434.725C483.34 434.535 483.49 434.275 483.49 433.945C483.49 433.675 483.39 433.45 483.19 433.27C483 433.09 482.615 432.98 482.035 432.94C481.625 432.91 481.245 432.865 480.895 432.805C480.605 432.965 480.395 433.14 480.265 433.33C480.145 433.52 480.085 433.715 480.085 433.915ZM489.847 433.18C489.097 433.18 488.432 433.02 487.852 432.7C487.272 432.38 486.817 431.93 486.487 431.35C486.157 430.77 485.992 430.1 485.992 429.34C485.992 428.57 486.152 427.885 486.472 427.285C486.802 426.685 487.252 426.22 487.822 425.89C488.402 425.55 489.082 425.38 489.862 425.38C490.592 425.38 491.237 425.54 491.797 425.86C492.357 426.18 492.792 426.62 493.102 427.18C493.422 427.73 493.582 428.345 493.582 429.025C493.582 429.135 493.577 429.25 493.567 429.37C493.567 429.49 493.562 429.615 493.552 429.745H487.897C487.937 430.325 488.137 430.78 488.497 431.11C488.867 431.44 489.312 431.605 489.832 431.605C490.222 431.605 490.547 431.52 490.807 431.35C491.077 431.17 491.277 430.94 491.407 430.66H493.357C493.217 431.13 492.982 431.56 492.652 431.95C492.332 432.33 491.932 432.63 491.452 432.85C490.982 433.07 490.447 433.18 489.847 433.18ZM489.862 426.94C489.392 426.94 488.977 427.075 488.617 427.345C488.257 427.605 488.027 428.005 487.927 428.545H491.632C491.602 428.055 491.422 427.665 491.092 427.375C490.762 427.085 490.352 426.94 489.862 426.94ZM406.345 453L410.185 442.5H412.345L416.185 453H414.145L413.305 450.57H409.21L408.355 453H406.345ZM409.735 449.07H412.78L411.25 444.705L409.735 449.07ZM420.036 453.18C419.276 453.18 418.606 453.015 418.026 452.685C417.446 452.355 416.986 451.895 416.646 451.305C416.316 450.715 416.151 450.04 416.151 449.28C416.151 448.52 416.316 447.845 416.646 447.255C416.986 446.665 417.446 446.205 418.026 445.875C418.606 445.545 419.276 445.38 420.036 445.38C420.986 445.38 421.786 445.63 422.436 446.13C423.086 446.62 423.501 447.3 423.681 448.17H421.656C421.556 447.81 421.356 447.53 421.056 447.33C420.766 447.12 420.421 447.015 420.021 447.015C419.491 447.015 419.041 447.215 418.671 447.615C418.301 448.015 418.116 448.57 418.116 449.28C418.116 449.99 418.301 450.545 418.671 450.945C419.041 451.345 419.491 451.545 420.021 451.545C420.421 451.545 420.766 451.445 421.056 451.245C421.356 451.045 421.556 450.76 421.656 450.39H423.681C423.501 451.23 423.086 451.905 422.436 452.415C421.786 452.925 420.986 453.18 420.036 453.18ZM424.635 453V445.56H426.345L426.525 446.955C426.795 446.475 427.16 446.095 427.62 445.815C428.09 445.525 428.64 445.38 429.27 445.38V447.405H428.73C428.31 447.405 427.935 447.47 427.605 447.6C427.275 447.73 427.015 447.955 426.825 448.275C426.645 448.595 426.555 449.04 426.555 449.61V453H424.635ZM433.271 453.18C432.551 453.18 431.901 453.015 431.321 452.685C430.751 452.355 430.296 451.9 429.956 451.32C429.626 450.73 429.461 450.05 429.461 449.28C429.461 448.51 429.631 447.835 429.971 447.255C430.311 446.665 430.766 446.205 431.336 445.875C431.916 445.545 432.566 445.38 433.286 445.38C433.996 445.38 434.636 445.545 435.206 445.875C435.786 446.205 436.241 446.665 436.571 447.255C436.911 447.835 437.081 448.51 437.081 449.28C437.081 450.05 436.911 450.73 436.571 451.32C436.241 451.9 435.786 452.355 435.206 452.685C434.626 453.015 433.981 453.18 433.271 453.18ZM433.271 451.515C433.771 451.515 434.206 451.33 434.576 450.96C434.946 450.58 435.131 450.02 435.131 449.28C435.131 448.54 434.946 447.985 434.576 447.615C434.206 447.235 433.776 447.045 433.286 447.045C432.776 447.045 432.336 447.235 431.966 447.615C431.606 447.985 431.426 448.54 431.426 449.28C431.426 450.02 431.606 450.58 431.966 450.96C432.336 451.33 432.771 451.515 433.271 451.515ZM441.122 453.18C440.462 453.18 439.882 453.075 439.382 452.865C438.882 452.645 438.482 452.345 438.182 451.965C437.882 451.585 437.702 451.145 437.642 450.645H439.577C439.637 450.935 439.797 451.185 440.057 451.395C440.327 451.595 440.672 451.695 441.092 451.695C441.512 451.695 441.817 451.61 442.007 451.44C442.207 451.27 442.307 451.075 442.307 450.855C442.307 450.535 442.167 450.32 441.887 450.21C441.607 450.09 441.217 449.975 440.717 449.865C440.397 449.795 440.072 449.71 439.742 449.61C439.412 449.51 439.107 449.385 438.827 449.235C438.557 449.075 438.337 448.875 438.167 448.635C437.997 448.385 437.912 448.08 437.912 447.72C437.912 447.06 438.172 446.505 438.692 446.055C439.222 445.605 439.962 445.38 440.912 445.38C441.792 445.38 442.492 445.585 443.012 445.995C443.542 446.405 443.857 446.97 443.957 447.69H442.142C442.032 447.14 441.617 446.865 440.897 446.865C440.537 446.865 440.257 446.935 440.057 447.075C439.867 447.215 439.772 447.39 439.772 447.6C439.772 447.82 439.917 447.995 440.207 448.125C440.497 448.255 440.882 448.375 441.362 448.485C441.882 448.605 442.357 448.74 442.787 448.89C443.227 449.03 443.577 449.245 443.837 449.535C444.097 449.815 444.227 450.22 444.227 450.75C444.237 451.21 444.117 451.625 443.867 451.995C443.617 452.365 443.257 452.655 442.787 452.865C442.317 453.075 441.762 453.18 441.122 453.18ZM448.253 453.18C447.593 453.18 447.013 453.075 446.513 452.865C446.013 452.645 445.613 452.345 445.313 451.965C445.013 451.585 444.833 451.145 444.773 450.645H446.708C446.768 450.935 446.928 451.185 447.188 451.395C447.458 451.595 447.803 451.695 448.223 451.695C448.643 451.695 448.948 451.61 449.138 451.44C449.338 451.27 449.438 451.075 449.438 450.855C449.438 450.535 449.298 450.32 449.018 450.21C448.738 450.09 448.348 449.975 447.848 449.865C447.528 449.795 447.203 449.71 446.873 449.61C446.543 449.51 446.238 449.385 445.958 449.235C445.688 449.075 445.468 448.875 445.298 448.635C445.128 448.385 445.043 448.08 445.043 447.72C445.043 447.06 445.303 446.505 445.823 446.055C446.353 445.605 447.093 445.38 448.043 445.38C448.923 445.38 449.623 445.585 450.143 445.995C450.673 446.405 450.988 446.97 451.088 447.69H449.273C449.163 447.14 448.748 446.865 448.028 446.865C447.668 446.865 447.388 446.935 447.188 447.075C446.998 447.215 446.903 447.39 446.903 447.6C446.903 447.82 447.048 447.995 447.338 448.125C447.628 448.255 448.013 448.375 448.493 448.485C449.013 448.605 449.488 448.74 449.918 448.89C450.358 449.03 450.708 449.245 450.968 449.535C451.228 449.815 451.358 450.22 451.358 450.75C451.368 451.21 451.248 451.625 450.998 451.995C450.748 452.365 450.388 452.655 449.918 452.865C449.448 453.075 448.893 453.18 448.253 453.18ZM455.178 453V442.5H462.033V444.045H457.098V446.925H461.583V448.425H457.098V451.455H462.033V453H455.178ZM465.065 453L462.335 445.56H464.345L466.235 451.185L468.125 445.56H470.135L467.39 453H465.065ZM473.845 453.18C473.095 453.18 472.43 453.02 471.85 452.7C471.27 452.38 470.815 451.93 470.485 451.35C470.155 450.77 469.99 450.1 469.99 449.34C469.99 448.57 470.15 447.885 470.47 447.285C470.8 446.685 471.25 446.22 471.82 445.89C472.4 445.55 473.08 445.38 473.86 445.38C474.59 445.38 475.235 445.54 475.795 445.86C476.355 446.18 476.79 446.62 477.1 447.18C477.42 447.73 477.58 448.345 477.58 449.025C477.58 449.135 477.575 449.25 477.565 449.37C477.565 449.49 477.56 449.615 477.55 449.745H471.895C471.935 450.325 472.135 450.78 472.495 451.11C472.865 451.44 473.31 451.605 473.83 451.605C474.22 451.605 474.545 451.52 474.805 451.35C475.075 451.17 475.275 450.94 475.405 450.66H477.355C477.215 451.13 476.98 451.56 476.65 451.95C476.33 452.33 475.93 452.63 475.45 452.85C474.98 453.07 474.445 453.18 473.845 453.18ZM473.86 446.94C473.39 446.94 472.975 447.075 472.615 447.345C472.255 447.605 472.025 448.005 471.925 448.545H475.63C475.6 448.055 475.42 447.665 475.09 447.375C474.76 447.085 474.35 446.94 473.86 446.94ZM478.445 453V445.56H480.155L480.335 446.955C480.605 446.475 480.97 446.095 481.43 445.815C481.9 445.525 482.45 445.38 483.08 445.38V447.405H482.54C482.12 447.405 481.745 447.47 481.415 447.6C481.085 447.73 480.825 447.955 480.635 448.275C480.455 448.595 480.365 449.04 480.365 449.61V453H478.445ZM484.572 456.3L486.297 452.505H485.847L482.952 445.56H485.037L487.122 450.795L489.297 445.56H491.337L486.612 456.3H484.572ZM407.02 473V462.5H409.3L412.645 469.16L415.945 462.5H418.225V473H416.305V465.755L413.38 471.5H411.865L408.94 465.755V473H407.02ZM423.082 473.18C422.332 473.18 421.667 473.02 421.087 472.7C420.507 472.38 420.052 471.93 419.722 471.35C419.392 470.77 419.227 470.1 419.227 469.34C419.227 468.57 419.387 467.885 419.707 467.285C420.037 466.685 420.487 466.22 421.057 465.89C421.637 465.55 422.317 465.38 423.097 465.38C423.827 465.38 424.472 465.54 425.032 465.86C425.592 466.18 426.027 466.62 426.337 467.18C426.657 467.73 426.817 468.345 426.817 469.025C426.817 469.135 426.812 469.25 426.802 469.37C426.802 469.49 426.797 469.615 426.787 469.745H421.132C421.172 470.325 421.372 470.78 421.732 471.11C422.102 471.44 422.547 471.605 423.067 471.605C423.457 471.605 423.782 471.52 424.042 471.35C424.312 471.17 424.512 470.94 424.642 470.66H426.592C426.452 471.13 426.217 471.56 425.887 471.95C425.567 472.33 425.167 472.63 424.687 472.85C424.217 473.07 423.682 473.18 423.082 473.18ZM423.097 466.94C422.627 466.94 422.212 467.075 421.852 467.345C421.492 467.605 421.262 468.005 421.162 468.545H424.867C424.837 468.055 424.657 467.665 424.327 467.375C423.997 467.085 423.587 466.94 423.097 466.94ZM430.865 473C430.085 473 429.46 472.81 428.99 472.43C428.52 472.05 428.285 471.375 428.285 470.405V467.165H427.01V465.56H428.285L428.51 463.565H430.205V465.56H432.215V467.165H430.205V470.42C430.205 470.78 430.28 471.03 430.43 471.17C430.59 471.3 430.86 471.365 431.24 471.365H432.17V473H430.865ZM433.114 473V465.56H434.824L435.004 466.955C435.274 466.475 435.639 466.095 436.099 465.815C436.569 465.525 437.119 465.38 437.749 465.38V467.405H437.209C436.789 467.405 436.414 467.47 436.084 467.6C435.754 467.73 435.494 467.955 435.304 468.275C435.124 468.595 435.034 469.04 435.034 469.61V473H433.114ZM439.346 464.405C438.996 464.405 438.706 464.3 438.476 464.09C438.256 463.88 438.146 463.615 438.146 463.295C438.146 462.975 438.256 462.715 438.476 462.515C438.706 462.305 438.996 462.2 439.346 462.2C439.696 462.2 439.981 462.305 440.201 462.515C440.431 462.715 440.546 462.975 440.546 463.295C440.546 463.615 440.431 463.88 440.201 464.09C439.981 464.3 439.696 464.405 439.346 464.405ZM438.386 473V465.56H440.306V473H438.386ZM445.205 473.18C444.445 473.18 443.775 473.015 443.195 472.685C442.615 472.355 442.155 471.895 441.815 471.305C441.485 470.715 441.32 470.04 441.32 469.28C441.32 468.52 441.485 467.845 441.815 467.255C442.155 466.665 442.615 466.205 443.195 465.875C443.775 465.545 444.445 465.38 445.205 465.38C446.155 465.38 446.955 465.63 447.605 466.13C448.255 466.62 448.67 467.3 448.85 468.17H446.825C446.725 467.81 446.525 467.53 446.225 467.33C445.935 467.12 445.59 467.015 445.19 467.015C444.66 467.015 444.21 467.215 443.84 467.615C443.47 468.015 443.285 468.57 443.285 469.28C443.285 469.99 443.47 470.545 443.84 470.945C444.21 471.345 444.66 471.545 445.19 471.545C445.59 471.545 445.935 471.445 446.225 471.245C446.525 471.045 446.725 470.76 446.825 470.39H448.85C448.67 471.23 448.255 471.905 447.605 472.415C446.955 472.925 446.155 473.18 445.205 473.18Z" fill="black"/>
<path d="M176.354 422.354C176.549 422.158 176.549 421.842 176.354 421.646L173.172 418.464C172.976 418.269 172.66 418.269 172.464 418.464C172.269 418.66 172.269 418.976 172.464 419.172L175.293 422L172.464 424.828C172.269 425.024 172.269 425.34 172.464 425.536C172.66 425.731 172.976 425.731 173.172 425.536L176.354 422.354ZM72 422.5L176 422.5L176 421.5L72 421.5L72 422.5Z" fill="black"/>
<path d="M386.354 422.354C386.549 422.158 386.549 421.842 386.354 421.646L383.172 418.464C382.976 418.269 382.66 418.269 382.464 418.464C382.269 418.66 382.269 418.976 382.464 419.172L385.293 422L382.464 424.828C382.269 425.024 382.269 425.34 382.464 425.536C382.66 425.731 382.976 425.731 383.172 425.536L386.354 422.354ZM282 422.5L386 422.5L386 421.5L282 421.5L282 422.5Z" fill="black"/>
<rect x="0.866044" width="269.194" height="269.194" transform="matrix(0.866044 -0.499967 0.866044 0.499967 3.11601 329.874)" stroke="black" stroke-dasharray="2 2"/>
<rect x="0.866044" width="269.194" height="269.194" transform="matrix(0.866044 -0.499967 0.866044 0.499967 3.11601 259.698)" fill="#CCCCCC" fill-opacity="0.5" stroke="black"/>
<rect x="0.866044" width="269.194" height="269.194" transform="matrix(0.866044 -0.499967 0.866044 0.499967 3.11601 189.521)" fill="black" fill-opacity="0.75" stroke="black"/>
</svg>
